# Blender 4.2.1 LTS
# www.blender.org
mtllib LOWPOLY_stone_1obj.mtl
o Low_Poly
v 0.965021 -0.113414 -1.001602
v 1.168775 -0.574736 -0.470124
v -0.830162 -0.643640 -0.468556
v -0.744307 -0.722804 0.396880
v -0.832803 -0.640646 0.797882
v -0.199641 -0.831994 -1.101285
v 0.318506 1.067074 -0.195469
v 0.859348 -0.679556 1.360190
v 1.118614 -0.721020 0.768324
v -0.392580 1.223239 -0.107935
v -0.178523 1.280561 -0.044633
v -0.461287 1.197889 0.075374
v -0.237873 1.306206 0.184642
v -0.338814 0.744997 -0.640723
v 0.759786 -0.319584 1.316125
v 0.253396 0.665954 0.936736
v 0.566248 0.447599 1.015117
v 0.131893 -0.129268 1.162831
v 0.164477 0.505080 1.005157
v 0.301784 0.216481 1.119605
v 0.188462 0.314295 1.118294
v -0.095671 0.690220 0.956769
v -0.015000 -0.847936 0.865229
v -0.334255 -0.680484 0.973255
v -0.778720 -0.559273 1.014148
v -0.732070 -0.680694 0.935442
v -0.810874 -0.150337 0.978272
v -0.889998 -0.378094 0.896918
v -0.668264 0.615122 0.794197
v -0.901298 -0.038115 0.640470
v -0.927823 0.510611 0.411750
v -0.933055 0.336433 -0.449599
v 0.241214 -1.008556 -0.568935
v -0.105099 -0.938317 -0.240925
v 0.329040 -1.059560 0.396554
v 0.839848 -0.943102 0.849590
v 0.395584 -1.021289 0.877285
v 0.662222 -0.933152 1.173914
v 1.112551 -0.715313 -0.240529
v 1.210108 -0.533161 -0.193025
v 1.031260 0.187555 -0.469686
v 1.122299 -0.715493 0.181258
v 1.019950 0.235902 0.350039
v 1.025286 0.202345 1.034585
v 0.832618 0.604366 0.595539
v 0.922647 -0.884716 -0.726356
v 0.822342 -0.139384 1.285217
v -0.849884 -0.483160 -0.718708
v -0.422107 -0.483146 -1.270261
v -0.205523 -0.679585 -1.361167
v -0.497694 0.171466 -0.975748
v -0.212621 0.288758 -1.014825
v 0.350985 -0.328104 -1.514084
v 0.558557 -0.621541 -1.382404
v 0.378926 -0.757611 -1.419984
v 0.252856 0.447111 -0.831543
v 0.094360 0.618774 -0.682499
v -0.519779 0.818886 -0.471151
v -0.074851 0.894845 -0.504801
v 0.173546 1.045691 -0.289889
v -0.212099 1.159099 -0.310835
v -0.602445 1.046967 -0.049972
v -0.914500 0.713422 0.082620
v 0.004613 1.275544 0.335035
v -0.572911 1.044027 0.362585
v -0.767402 0.590927 -0.502499
v -0.237305 1.151202 0.509263
v 0.511835 0.749316 -0.430646
v 0.653298 0.607740 0.884806
v 0.107240 1.046187 0.629230
v 0.471761 -0.643913 1.277944
v 0.478732 0.184206 1.144879
v 0.081859 -0.629258 1.097960
v -0.431050 0.131745 1.127390
v -0.108256 -0.285013 1.103016
v -0.332020 0.620939 0.979793
v -0.726470 -0.339117 1.074510
v -0.497939 0.382993 1.046816
v -0.561090 0.874538 0.601310
v -0.899238 -0.387024 0.253590
v -0.764779 -0.782460 0.102971
v -0.909541 -0.246421 0.208826
v -0.925675 -0.205443 -0.184093
v -0.992707 0.303385 -0.114269
v -0.960916 -0.051166 -0.418538
v -0.807554 0.649192 0.578453
v -0.629947 0.523926 -0.705697
v -0.783854 0.268749 -0.760609
v -0.594554 -0.727009 -0.770555
v -0.109444 -0.928272 -0.726615
v 0.133250 -0.916535 -1.161130
v 0.914885 -0.890140 -0.246757
v 0.397061 -0.991115 -0.531597
v 0.364179 -1.003513 -0.259009
v 0.563069 -1.004158 0.064943
v 0.926770 -0.886382 0.320400
v -0.400394 -0.909993 0.062098
v 0.628458 -1.040662 0.551638
v 0.113159 -0.988443 0.116751
v -0.414001 -0.878713 0.412528
v 0.892550 -0.844471 1.164600
v 0.041526 -0.978891 0.597045
v -0.633231 -0.793245 0.766087
v 0.481319 -0.860672 1.197465
v -0.575472 -0.828165 -0.411019
v 1.201602 -0.353185 -0.409509
v 0.886719 0.198696 -0.780857
v 1.227643 -0.528471 0.487096
v 1.224739 -0.461360 0.197698
v 1.117092 0.027668 -0.173115
v 0.637790 0.434328 -0.744519
v 1.231679 -0.360339 0.891233
v 1.230284 -0.116364 0.543947
v 1.243783 -0.138145 0.203067
v 0.950130 0.350427 -0.321316
v 0.669160 0.802264 -0.179563
v 0.995491 0.437641 -0.064439
v 1.188817 0.061619 0.829148
v 1.114822 0.087021 0.072831
v 1.016290 0.309952 0.159109
v 1.192598 -0.431325 1.108416
v 1.120160 -0.588112 1.176050
v 0.927193 0.516605 0.216441
v 0.679472 0.839420 0.256401
v 0.993456 -0.485667 1.329055
v 1.102329 -0.189601 1.196720
v 1.019752 -0.678987 -0.935530
v 1.050470 -0.491565 -0.953428
v 0.573622 0.845972 0.607592
v 0.964545 0.342705 0.905581
v -0.657133 0.001170 -0.942899
v -0.414541 -0.702123 -1.139603
v -0.261232 -0.278908 -1.420820
v -0.030788 -0.378795 -1.561889
v 0.000122 -0.211466 -1.521544
v 0.206595 -0.076994 -1.400644
v 0.127353 0.110112 -1.178936
v 0.102217 -0.618530 -1.525935
v 0.556815 -0.418011 -1.394098
v 0.683488 0.011934 -1.100954
v -0.891314 -0.023224 -0.717150
v -0.097119 0.470523 -0.883059
v 0.872771 -0.770279 -1.085742
v 0.461328 -0.915168 -1.134821
v 0.092358 -0.805283 -1.354614
vn -0.2007 -0.9494 0.2415
vn -0.7614 0.0029 -0.6483
vn -0.3702 -0.9193 0.1337
vn -0.4671 0.8205 0.3294
vn -0.1254 0.9085 -0.3987
vn -0.7163 0.2865 0.6363
vn -0.6596 0.7375 -0.1452
vn 0.1722 0.7299 -0.6615
vn 0.9191 0.3692 0.1377
vn 0.1660 0.9838 -0.0671
vn 0.6646 -0.0561 -0.7451
vn 0.1477 0.7227 -0.6752
vn -0.6758 0.2361 -0.6982
vn -0.3989 0.5871 0.7044
vn 0.6381 0.1241 -0.7599
vn -0.6161 -0.7373 -0.2772
vn 0.7442 0.6572 0.1194
vn -0.9279 0.1472 -0.3426
vn -0.8941 0.3796 -0.2377
vn -0.2147 0.0760 0.9737
vn 0.3461 -0.1792 -0.9209
vn -0.0010 0.1000 0.9950
vn -0.5034 -0.8639 -0.0134
vn 0.8937 -0.4036 -0.1958
vn 0.2275 -0.9559 -0.1857
vn -0.0387 0.2958 0.9545
vn -0.0779 -0.5632 0.8227
vn 0.1034 0.4088 0.9068
vn -0.1238 -0.7855 0.6063
vn -0.8866 0.2004 0.4168
vn 0.4631 0.6918 -0.5540
vn 0.3628 0.7921 0.4909
vn 0.5463 -0.8376 -0.0001
vn 0.6580 -0.7529 -0.0117
vn 0.9539 0.2966 -0.0464
vn -0.9968 -0.0668 -0.0446
vn -0.5426 0.6493 -0.5328
vn 0.2493 0.6301 -0.7354
vn 0.2640 -0.9585 -0.1074
vn -0.9975 -0.0621 0.0345
vn 0.0184 0.6713 0.7410
vn -0.3162 -0.8339 -0.4524
vn 0.1144 0.4768 0.8715
vn -0.9940 -0.0502 0.0977
vn -0.9684 -0.0864 -0.2338
vn 0.6889 -0.7037 0.1737
vn 0.9779 0.1667 -0.1258
vn 0.2675 0.7117 0.6495
vn -0.3779 0.5598 -0.7374
vn -0.1665 0.6451 -0.7458
vn 0.9239 0.3629 0.1214
vn -0.7358 0.0016 0.6772
vn 0.7537 -0.6539 -0.0666
vn -0.2852 -0.9582 -0.0235
vn 0.5465 0.8355 0.0564
vn -0.0971 -0.9910 0.0923
vn 0.0376 -0.8671 -0.4967
vn 0.7657 -0.6431 -0.0012
vn 0.3549 0.5928 0.7229
vn -0.4007 -0.8954 -0.1943
vn -0.2821 0.5410 -0.7923
vn 0.1597 0.4693 0.8685
vn -0.0448 -0.9952 -0.0875
vn 0.2578 0.7683 -0.5859
vn -0.1664 0.2328 0.9582
vn -0.4348 0.6544 -0.6187
vn -0.7287 0.6825 0.0570
vn 0.1807 -0.9708 0.1579
vn 0.9979 -0.0584 -0.0266
vn 0.7425 -0.0015 0.6698
vn -0.9075 -0.4201 -0.0031
vn 0.4209 0.5044 -0.7539
vn 0.9324 -0.3369 0.1308
vn 0.9543 -0.2814 -0.1001
vn 0.8873 0.4501 -0.1004
vn 0.7532 0.5709 -0.3268
vn -0.5384 -0.6199 -0.5709
vn -0.0352 0.3612 0.9318
vn 0.7895 0.5641 0.2420
vn -0.1736 -0.4325 0.8847
vn -0.1425 -0.9884 -0.0515
vn 0.7063 -0.6403 -0.3019
vn 0.2607 -0.9637 -0.0583
vn 0.0707 0.6589 -0.7489
vn -0.6147 0.6232 0.4835
vn 0.8597 0.5106 0.0097
vn -0.2123 -0.9664 -0.1447
vn -0.0073 -0.2921 0.9564
vn 0.0047 0.7283 -0.6853
vn -0.4214 -0.6769 0.6035
vn -0.0738 -0.1151 0.9906
vn -0.2151 -0.4100 0.8863
vn -0.0562 -0.6733 -0.7372
vn 0.0570 -0.9884 -0.1410
vn 0.2432 -0.0536 -0.9685
vn 0.9999 -0.0085 0.0149
vn -0.9900 -0.1357 0.0388
vn -0.1881 -0.9817 0.0290
vn 0.4075 -0.6638 -0.6272
vn 0.7561 -0.1839 -0.6281
vn 0.2048 0.6537 -0.7285
vn 0.8399 0.5424 -0.0205
vn 0.4792 0.5909 -0.6490
vn -0.1232 0.0869 0.9886
vn 0.1980 -0.9801 -0.0125
vn -0.4592 0.7135 0.5293
vn -0.1783 -0.9837 0.0224
vn 0.6197 0.4009 0.6747
vn 0.6825 0.6244 -0.3799
vn 0.0458 0.3123 0.9489
vn -0.2681 0.6658 0.6963
vn 0.6133 0.6967 0.3721
vn -0.3346 -0.4883 -0.8060
vn -0.5768 -0.7942 0.1912
vn -0.7970 0.5527 0.2435
vn -0.4054 -0.3338 0.8510
vn -0.9972 -0.0581 0.0471
vn -0.9854 0.1598 0.0586
vn -0.9839 0.0571 -0.1694
vn -0.2839 -0.9517 -0.1173
vn -0.8451 -0.3952 0.3600
vn -0.1935 -0.9763 -0.0973
vn -0.7202 -0.4923 -0.4888
vn -0.9636 -0.2673 0.0028
vn 0.3581 -0.9065 0.2239
vn 0.2973 -0.7045 0.6445
vn -0.2690 -0.8301 0.4884
vn -0.7219 0.4547 -0.5216
vn -0.9939 -0.1089 0.0158
vn 0.7691 0.6378 -0.0411
vn -0.4672 0.3854 -0.7957
vn 0.9379 0.1764 0.2986
vn 0.9344 -0.3446 0.0903
vn 0.9254 -0.3669 -0.0944
vn 0.9980 -0.0584 -0.0236
vn 0.2384 0.2370 0.9418
vn 0.9307 0.3221 -0.1736
vn -0.5514 -0.1973 -0.8105
vn 0.9375 0.2710 -0.2182
vn -0.6898 0.6202 -0.3736
vn 0.1197 0.6571 -0.7442
vn -0.0503 0.8446 0.5330
vn 0.9535 0.0896 -0.2877
vn -0.3371 -0.0879 0.9374
vn 0.6030 0.7935 -0.0819
vn -0.3178 0.9429 -0.0993
vn -0.4078 0.2845 -0.8676
vn 0.9085 -0.4179 0.0096
vn -0.4741 0.1831 0.8612
vn 0.3168 0.9147 -0.2508
vn 0.2198 0.7828 -0.5821
vn 0.6136 -0.4650 0.6381
vn 0.7777 0.5271 -0.3424
vn -0.4466 -0.8906 -0.0853
vn -0.6942 0.1507 -0.7038
vn -0.0815 0.6184 -0.7816
vn 0.1185 -0.9925 -0.0309
vn -0.3740 -0.8620 0.3421
vn 0.1188 0.0405 -0.9921
vn 0.8905 0.4549 -0.0125
vn -0.0802 0.3035 0.9494
vn 0.9244 0.3612 0.1224
vn 0.5352 0.6940 -0.4817
vn 0.1808 0.4894 -0.8531
vn -0.9766 -0.2132 -0.0277
vt 0.249519 0.733676
vt 0.177381 0.733575
vt 0.194359 0.689627
vt 0.257905 0.684884
vt 0.510972 0.226130
vt 0.531257 0.282379
vt 0.479220 0.328452
vt 0.440372 0.229699
vt 0.196506 0.628361
vt 0.148770 0.696664
vt 0.137975 0.642727
vt 0.830699 0.689541
vt 0.762760 0.738747
vt 0.759165 0.684726
vt 0.804926 0.657928
vt 0.765093 0.585742
vt 0.790696 0.624240
vt 0.746507 0.642273
vt 0.562358 0.001952
vt 0.596742 0.027778
vt 0.504779 0.966327
vt 0.556551 0.924940
vt 0.835192 0.623866
vt 0.645505 0.598356
vt 0.624715 0.540298
vt 0.701633 0.509987
vt 0.722557 0.530430
vt 0.556334 0.677885
vt 0.560059 0.713020
vt 0.534867 0.669347
vt 0.542177 0.661283
vt 0.709178 0.723460
vt 0.514966 0.444917
vt 0.495988 0.519038
vt 0.446812 0.488604
vt 0.483697 0.444800
vt 0.750146 0.500517
vt 0.558388 0.297112
vt 0.511881 0.360617
vt 0.576971 0.903582
vt 0.623302 0.965228
vt 0.593121 0.978792
vt 0.531204 0.529708
vt 0.520527 0.428598
vt 0.388968 0.274765
vt 0.375271 0.254092
vt 0.394795 0.196192
vt 0.593985 0.702232
vt 0.592823 0.756642
vt 0.501570 0.174705
vt 0.549752 0.189608
vt 0.552548 0.244123
vt 0.600496 0.112423
vt 0.596253 0.209509
vt 0.541218 0.131760
vt 0.396233 0.811943
vt 0.438914 0.767911
vt 0.483282 0.854353
vt 0.440466 0.433694
vt 0.460353 0.404042
vt 0.528558 0.841422
vt 0.523328 0.909480
vt 0.517453 0.830603
vt 0.134325 0.729715
vt 0.404026 0.512104
vt 0.470051 0.508684
vt 0.459969 0.541729
vt 0.387083 0.456689
vt 0.307937 0.550690
vt 0.412393 0.905647
vt 0.452443 0.948359
vt 0.421475 0.947777
vt 0.538509 0.790471
vt 0.556342 0.843110
vt 0.383381 0.945331
vt 0.376354 0.881912
vt 0.570558 0.061144
vt 0.470259 0.001704
vt 0.530772 0.001483
vt 0.662069 0.633905
vt 0.604495 0.655541
vt 0.698792 0.604433
vt 0.623973 0.822130
vt 0.602665 0.840056
vt 0.362516 0.582509
vt 0.403933 0.606759
vt 0.350193 0.627571
vt 0.324470 0.615757
vt 0.374400 0.548925
vt 0.433577 0.548765
vt 0.415451 0.572368
vt 0.484545 0.629987
vt 0.491361 0.661833
vt 0.448630 0.627526
vt 0.496232 0.031064
vt 0.832284 0.546391
vt 0.752846 0.544421
vt 0.285679 0.634784
vt 0.322128 0.582266
vt 0.475690 0.084517
vt 0.482513 0.128389
vt 0.453332 0.076270
vt 0.624311 0.877211
vt 0.578059 0.875700
vt 0.570754 0.831095
vt 0.407877 0.401400
vt 0.381782 0.393094
vt 0.388497 0.356835
vt 0.440273 0.364831
vt 0.560973 0.772054
vt 0.408288 0.657603
vt 0.361261 0.660708
vt 0.517298 0.604580
vt 0.490053 0.603192
vt 0.457144 0.558549
vt 0.485768 0.557559
vt 0.524068 0.394286
vt 0.583145 0.347860
vt 0.795920 0.518776
vt 0.526869 0.639215
vt 0.554784 0.650768
vt 0.467762 0.982758
vt 0.483390 0.940482
vt 0.260296 0.611746
vt 0.633938 0.746402
vt 0.295862 0.677860
vt 0.435985 0.594296
vt 0.522968 0.711035
vt 0.501754 0.710957
vt 0.229364 0.500885
vt 0.235109 0.526686
vt 0.424997 0.326468
vt 0.600894 0.261621
vt 0.624385 0.330573
vt 0.463725 0.764706
vt 0.509471 0.813714
vt 0.301864 0.568798
vt 0.873857 0.629871
vt 0.328690 0.688982
vt 0.453627 0.581648
vt 0.433577 0.649123
vt 0.457344 0.690826
vt 0.417365 0.708797
vt 0.381544 0.113805
vt 0.381570 0.048571
vt 0.409755 0.015012
vt 0.569497 0.497309
vt 0.547381 0.415073
vt 0.555235 0.619629
vt 0.371980 0.716318
vt 0.342879 0.748952
vt 0.307186 0.725916
vt 0.229609 0.578667
vt 0.574638 0.404986
vt 0.611613 0.368943
vt 0.618766 0.411691
vt 0.874796 0.737102
vt 0.865025 0.748302
vt 0.840114 0.735731
vt 0.282644 0.507593
vt 0.287302 0.551030
vt 0.467201 0.885230
vt 0.379305 0.829581
vt 0.407281 0.865784
vt 0.320314 0.506747
vt 0.561032 0.558870
vt 0.379734 0.761175
vt 0.501009 0.390918
vt 0.415467 0.979872
vt 0.623586 0.079519
vt 0.158836 0.551174
vt 0.145252 0.501457
vt 0.538987 0.596242
vt 0.771286 0.500000
vt 0.731102 0.749689
vt 0.127068 0.557885
s 0
usemtl Material
f 23/1/1 103/2/1 100/3/1 102/4/1
f 141/5/2 131/6/2 49/7/2 48/8/2
f 97/9/3 100/3/3 4/10/3 81/11/3
f 65/12/4 67/13/4 13/14/4 12/15/4
f 61/16/5 10/17/5 11/18/5
f 29/19/6 86/20/6 27/21/6 78/22/6
f 62/23/7 12/15/7 10/17/7
f 68/24/8 111/25/8 56/26/8 57/27/8
f 123/28/9 45/29/9 43/30/9 120/31/9
f 13/14/10 64/32/10 11/18/10
f 139/33/11 128/34/11 143/35/11 54/36/11
f 142/37/12 57/27/12 56/26/12
f 49/7/13 131/6/13 51/38/13 133/39/13
f 76/40/14 79/41/14 29/42/14 78/22/14
f 1/43/15 128/34/15 139/33/15 53/44/15
f 48/8/16 89/45/16 105/46/16 3/47/16
f 124/48/17 129/49/17 45/29/17 123/28/17
f 85/50/18 32/51/18 88/52/18 141/5/18
f 63/53/19 66/54/19 32/51/19 84/55/19
f 71/56/20 15/57/20 18/58/20
f 53/44/21 139/33/21 55/59/21 138/60/21
f 21/61/22 74/62/22 18/58/22 20/63/22
f 4/10/23 100/3/23 103/2/23 5/64/23
f 46/65/24 127/66/24 128/34/24 2/67/24
f 144/68/25 143/35/25 46/65/25 93/69/25
f 74/62/26 76/40/26 78/22/26
f 24/70/27 25/71/27 26/72/27
f 20/63/28 17/73/28 19/74/28 21/61/28
f 103/75/29 23/76/29 24/70/29 26/72/29
f 31/77/30 28/78/30 27/79/30 86/20/30
f 7/80/31 116/81/31 68/24/31 60/82/31
f 64/83/32 70/84/32 129/49/32
f 96/85/33 9/86/33 36/87/33 98/88/33
f 92/89/34 39/90/34 42/91/34 96/85/34
f 113/92/35 43/30/35 118/93/35 112/94/35
f 31/77/36 30/95/36 28/78/36
f 58/96/37 62/23/37 10/17/37 61/16/37
f 59/97/38 60/82/38 68/24/38 57/27/38
f 96/85/39 98/88/39 35/98/39 95/99/39
f 82/100/40 83/101/40 80/102/40
f 70/84/41 67/103/41 22/104/41 16/105/41
f 145/106/42 91/107/42 6/108/42 50/109/42
f 16/105/43 19/74/43 17/73/43 69/110/43
f 31/77/44 84/55/44 82/100/44 30/95/44
f 85/50/45 141/5/45 48/8/45
f 9/86/46 122/111/46 101/112/46 36/87/46
f 110/113/47 114/114/47 40/115/47 106/116/47
f 69/110/48 129/49/48 70/84/48 16/105/48
f 135/117/49 133/39/49 51/38/49 52/118/49
f 14/119/50 58/96/50 61/16/50 59/97/50
f 123/28/51 120/31/51 119/120/51 117/121/51
f 28/122/52 25/71/52 77/123/52 27/21/52
f 46/65/53 2/67/53 39/90/53 92/89/53
f 35/98/54 102/4/54 99/124/54
f 64/32/55 129/125/55 124/48/55 7/80/55
f 37/126/56 102/4/56 35/98/56 98/88/56
f 91/107/57 145/106/57 55/59/57 144/68/57
f 9/86/58 96/85/58 42/91/58 108/127/58
f 130/128/59 69/110/59 17/73/59 44/129/59
f 6/130/60 90/131/60 89/45/60 132/132/60
f 87/133/61 14/134/61 52/118/61 51/38/61
f 47/135/62 44/129/62 17/73/62 72/136/62
f 94/137/63 95/99/63 35/98/63 99/124/63
f 59/97/64 61/16/64 11/18/64 60/82/64
f 15/57/65 47/135/65 72/136/65 18/58/65
f 66/54/66 58/96/66 14/119/66 87/133/66
f 62/23/67 63/138/67 65/12/67 12/15/67
f 38/139/68 37/126/68 98/88/68 36/87/68
f 40/115/69 114/114/69 109/140/69
f 121/141/70 126/142/70 125/143/70 122/111/70
f 80/102/71 81/144/71 4/145/71 5/146/71
f 140/147/72 1/43/72 53/44/72 136/148/72
f 108/127/73 112/94/73 9/86/73
f 106/116/74 40/115/74 39/90/74 2/67/74
f 114/114/75 110/113/75 119/120/75
f 116/81/76 117/121/76 115/149/76
f 132/132/77 49/7/77 50/109/77 6/108/77
f 19/74/78 76/40/78 74/62/78 21/61/78
f 118/93/79 130/128/79 44/129/79
f 8/150/80 71/151/80 104/152/80 38/139/80
f 97/9/81 34/153/81 94/137/81 99/124/81
f 143/35/82 127/66/82 46/65/82
f 92/89/83 96/85/83 95/99/83 94/137/83
f 137/154/84 52/118/84 142/155/84 56/156/84
f 86/157/85 29/158/85 79/159/85 65/12/85
f 119/120/86 43/30/86 113/92/86 114/114/86
f 6/130/87 91/160/87 33/161/87 90/131/87
f 75/162/88 77/123/88 25/71/88 24/70/88
f 136/148/89 135/117/89 52/118/89 137/154/89
f 23/1/90 37/126/90 104/163/90 73/164/90
f 75/162/91 18/58/91 74/62/91 77/123/91
f 24/70/92 23/76/92 73/164/92 75/162/92
f 145/106/93 138/60/93 55/59/93
f 33/161/94 91/160/94 144/165/94 93/69/94
f 55/59/95 139/33/95 54/36/95
f 108/127/96 114/114/96 113/92/96 112/94/96
f 85/50/97 83/101/97 82/100/97 84/55/97
f 99/124/98 102/4/98 100/3/98 97/9/98
f 144/68/99 55/59/99 54/36/99 143/35/99
f 128/34/100 127/66/100 143/35/100
f 137/154/101 56/156/101 111/25/101 140/147/101
f 130/128/102 118/93/102 43/30/102 45/29/102
f 140/147/103 111/25/103 107/166/103 1/43/103
f 8/167/104 125/143/104 15/57/104 71/56/104
f 93/69/105 46/65/105 92/89/105 94/137/105
f 65/12/106 79/159/106 67/13/106
f 33/161/107 94/137/107 34/153/107 90/131/107
f 44/129/108 47/135/108 126/142/108 118/93/108
f 116/81/109 115/149/109 107/166/109 111/25/109
f 22/104/110 76/40/110 19/74/110 16/105/110
f 76/40/111 22/104/111 67/103/111 79/41/111
f 45/29/112 129/49/112 69/110/112 130/128/112
f 145/106/113 50/109/113 134/168/113 138/60/113
f 26/72/114 5/169/114 103/75/114
f 31/77/115 86/20/115 65/170/115 63/53/115
f 104/163/116 71/56/116 73/164/116
f 80/102/117 30/95/117 82/100/117
f 31/77/118 63/53/118 84/55/118
f 85/50/119 84/55/119 32/51/119
f 90/131/120 34/153/120 105/171/120 89/172/120
f 25/71/121 28/122/121 5/169/121 26/72/121
f 105/171/122 34/153/122 97/9/122
f 89/45/123 48/8/123 49/7/123 132/132/123
f 81/144/124 80/102/124 83/101/124 3/47/124
f 36/87/125 101/112/125 38/139/125
f 101/112/126 8/150/126 38/139/126
f 37/126/127 38/139/127 104/152/127
f 66/54/128 87/133/128 88/52/128 32/51/128
f 28/78/129 30/95/129 80/102/129 5/146/129
f 116/81/130 124/48/130 123/28/130 117/121/130
f 88/52/131 87/133/131 51/38/131 131/6/131
f 118/93/132 126/142/132 121/141/132 112/94/132
f 9/86/133 112/94/133 121/141/133 122/111/133
f 42/91/134 109/140/134 108/127/134
f 109/140/135 114/114/135 108/127/135
f 125/143/136 126/142/136 47/135/136 15/57/136
f 110/113/137 115/149/137 117/121/137 119/120/137
f 134/168/138 50/109/138 49/7/138 133/39/138
f 106/116/139 1/43/139 41/173/139 110/113/139
f 58/96/140 66/54/140 63/53/140 62/23/140
f 142/174/141 14/119/141 59/97/141 57/27/141
f 13/14/142 67/13/142 70/175/142 64/32/142
f 1/43/143 106/116/143 2/67/143 128/34/143
f 18/58/144 75/162/144 73/164/144 71/56/144
f 7/80/145 124/48/145 116/81/145
f 11/18/146 10/17/146 12/15/146 13/14/146
f 134/168/147 133/39/147 135/117/147
f 109/140/148 42/91/148 39/90/148 40/115/148
f 78/22/149 27/21/149 77/123/149 74/62/149
f 60/82/150 11/18/150 64/32/150 7/80/150
f 136/148/151 137/154/151 140/147/151
f 8/150/152 101/112/152 122/111/152 125/143/152
f 41/173/153 1/43/153 107/166/153 115/149/153
f 105/171/154 97/9/154 81/11/154 3/176/154
f 141/5/155 88/52/155 131/6/155
f 52/118/156 14/134/156 142/155/156
f 94/137/157 33/161/157 93/69/157
f 23/1/158 102/4/158 37/126/158
f 138/60/159 134/168/159 135/117/159 53/44/159
f 110/113/160 41/173/160 115/149/160
f 20/63/161 18/58/161 72/136/161 17/73/161
f 120/31/162 43/30/162 119/120/162
f 116/81/163 111/25/163 68/24/163
f 136/148/164 53/44/164 135/117/164
f 85/50/165 48/8/165 3/47/165 83/101/165
