# Blender 4.2.1 LTS
# www.blender.org
mtllib LOWPOLY_stone_3.mtl
o Low_Poly
v 0.925024 0.786738 -2.209061
v 0.205083 1.518844 1.797621
v 2.069479 -0.016580 0.697828
v -2.007510 1.126281 -0.285438
v 0.303733 2.396487 0.073658
v 0.470588 -0.883512 3.085845
v -0.902409 0.198627 1.758233
v -0.624638 1.941386 1.115112
v -0.885332 1.429054 1.486148
v -1.223364 -0.815467 2.071505
v -1.106725 0.135936 1.208973
v -1.479633 1.320708 0.438521
v -2.228121 0.514989 -1.265364
v -1.457872 -1.769003 -0.586002
v -1.100333 -1.225930 0.821908
v 1.542119 -0.713900 -2.956262
v 2.718323 -1.061885 0.137597
v 2.139584 0.234231 -0.621720
v 2.745747 -0.978425 1.446068
v 2.534641 -1.332511 2.524920
v 2.366518 -0.767741 2.348259
v -1.816483 -0.845661 -2.834632
v -1.124732 -0.824236 -2.981345
v -2.504842 -1.158760 -2.510129
v 0.552887 2.361112 -0.119598
v 0.268704 2.027345 1.266847
v -0.900663 1.997934 0.195107
v 0.727686 1.895600 1.308003
v 0.900369 0.146960 2.576560
v 0.472066 0.486858 1.960761
v 0.248894 -0.123353 2.514704
v -0.371740 0.178558 2.061215
v -0.407790 1.472448 1.846248
v -0.882262 -0.294769 2.599446
v -0.803786 -0.755705 2.678867
v -1.217389 -0.245957 2.186691
v 1.346296 -0.971770 3.013289
v -2.011523 0.369228 -0.198760
v -1.234833 -0.606746 0.819749
v -2.283474 -0.316999 -0.897655
v -2.431141 -1.536347 -1.073917
v -1.500029 -2.002446 -1.865856
v 0.412388 -2.011273 -1.455487
v 1.029165 -1.933605 -0.694547
v -0.094283 -1.989758 -0.374521
v 1.923635 -1.919778 1.713429
v 2.109770 -2.052346 -0.021132
v 0.319785 -1.837113 1.911791
v 1.139896 -1.973234 2.383353
v -0.747503 -1.691918 0.599371
v 0.983950 -1.711980 2.981457
v -0.143024 -1.294203 2.924397
v -0.270261 -1.623893 -3.022500
v 1.281655 -1.257409 -3.060542
v 1.799203 1.208914 -1.721641
v 1.349688 -1.537136 -2.778111
v 2.184556 -0.777221 -2.321967
v 1.583209 0.401039 -2.018519
v 2.106733 1.634004 -0.531215
v 1.787145 -1.655595 -1.876688
v 2.167587 -1.201417 -2.330283
v 2.013696 0.096871 -1.374143
v 2.473789 -1.709797 0.563442
v 2.494481 -1.248255 -1.127932
v 2.575147 -0.823877 -0.908117
v 2.094500 0.589061 0.072092
v 1.988233 1.827280 0.202692
v 2.416316 -1.773724 2.433233
v 2.301883 1.591458 -0.009402
v 2.165835 1.443203 0.470255
v 1.782426 1.542407 0.691644
v 2.484342 -0.579207 1.794513
v 1.358313 0.569942 1.430802
v 1.881417 0.049155 1.862689
v 1.115371 1.156951 1.524456
v 0.717918 -0.515917 -3.089041
v -2.643387 -1.355185 -1.943657
v -1.721763 0.677380 -1.715434
v -1.693150 1.366141 -0.742942
v -1.831960 -0.222355 -2.045871
v -0.405935 1.500973 -1.576805
v -0.943051 0.088792 -2.234509
v -0.245495 0.538845 -2.284781
v 0.127233 1.821665 -1.598335
v -1.731200 -1.608661 -2.743530
v -0.666260 -0.553713 -2.826924
v -0.262470 -0.247017 -2.630452
vn -0.1915 -0.1462 -0.9705
vn -0.9728 0.0966 0.2107
vn 0.1392 -0.9556 0.2598
vn -0.0721 0.7819 0.6192
vn 0.4532 0.5516 0.7002
vn 0.0599 0.1678 0.9840
vn -0.3855 0.8703 -0.3065
vn 0.3751 0.5322 -0.7590
vn 0.8971 0.4373 0.0627
vn -0.1391 0.4983 -0.8558
vn -0.5253 0.3518 -0.7748
vn -0.1651 0.3745 0.9124
vn -0.5517 -0.7863 0.2780
vn -0.0283 -0.1422 0.9894
vn 0.9869 0.1602 -0.0178
vn 0.4401 -0.8967 0.0468
vn 0.4059 0.8978 -0.1709
vn -0.3347 0.8093 0.4827
vn -0.8171 -0.1038 0.5671
vn -0.2534 0.6994 0.6683
vn 0.6064 0.6239 0.4930
vn -0.5454 0.1548 0.8238
vn -0.2227 0.9505 0.2169
vn 0.3888 0.3283 0.8608
vn -0.6888 0.6409 -0.3388
vn -0.9941 0.1076 -0.0157
vn -0.6504 0.7453 0.1462
vn 0.9878 0.0247 -0.1541
vn -0.9594 0.0770 0.2714
vn 0.8783 0.4207 -0.2270
vn 0.8541 -0.5044 -0.1272
vn -0.1554 0.6722 -0.7239
vn 0.9912 -0.1139 0.0668
vn 0.6292 0.1384 0.7648
vn -0.3376 -0.8876 0.3134
vn -0.0485 0.4587 0.8873
vn 0.0051 -0.9520 -0.3061
vn 0.0312 -0.9974 -0.0655
vn 0.9386 -0.3430 0.0369
vn -0.5679 -0.7718 0.2861
vn 0.6621 -0.1035 -0.7422
vn 0.2947 0.8522 0.4324
vn -0.0866 -0.9922 0.0901
vn 0.1059 -0.9209 -0.3752
vn -0.4919 -0.8166 -0.3022
vn -0.0764 -0.9963 0.0402
vn -0.0376 -0.0264 -0.9989
vn 0.1406 0.7065 0.6937
vn -0.2573 0.1214 0.9587
vn -0.7028 0.6479 0.2938
vn -0.2320 -0.9628 0.1388
vn -0.7084 0.6809 0.1858
vn -0.2734 0.4896 -0.8280
vn 0.9633 -0.0394 -0.2656
vn -0.1107 0.7792 0.6170
vn -0.8149 0.0702 0.5753
vn 0.8328 0.5519 -0.0432
vn -0.2354 0.5032 -0.8315
vn 0.6969 0.1311 0.7051
vn -0.1457 0.5123 -0.8464
vn -0.9768 -0.2123 -0.0264
vn 0.8914 0.3448 0.2942
vn 0.5524 0.5374 0.6373
vn 0.5423 -0.6988 -0.4666
vn -0.4874 -0.7659 0.4192
vn 0.9818 -0.1047 -0.1583
vn 0.0770 0.9936 -0.0826
vn 0.9362 -0.3515 0.0028
vn -0.8011 -0.0770 0.5935
vn 0.2787 0.9195 0.2774
vn 0.6647 -0.7063 -0.2436
vn 0.4484 0.3857 0.8063
vn 0.7307 0.4942 -0.4711
vn -0.8953 0.0587 0.4415
vn -0.3599 0.8327 -0.4209
vn 0.7007 0.7097 0.0731
vn -0.8606 0.0714 -0.5043
vn -0.1249 0.6430 -0.7557
vn -0.8070 0.5616 -0.1824
vn -0.3987 -0.9144 0.0694
vn 0.2034 -0.9671 -0.1527
vn -0.4892 0.6610 0.5690
vn 0.1817 0.1006 -0.9782
vn 0.8280 -0.0154 -0.5605
vn -0.8412 0.0001 0.5407
vn 0.2333 0.4879 -0.8411
vn -0.2862 0.6927 -0.6620
vn -0.3128 0.3610 -0.8786
vn 0.9084 -0.2170 -0.3574
vn 0.3260 -0.2285 0.9173
vn 0.0256 -0.9767 -0.2133
vn 0.6923 0.6252 0.3602
vn 0.1449 -0.9853 0.0908
vn 0.2956 0.8696 -0.3954
vt 0.469491 0.455791
vt 0.410086 0.520030
vt 0.385058 0.468907
vt 0.459790 0.423686
vt 0.499348 0.212707
vt 0.549354 0.144563
vt 0.619190 0.199455
vt 0.571059 0.285065
vt 0.311403 0.646322
vt 0.345962 0.638519
vt 0.407175 0.675264
vt 0.324331 0.721141
vt 0.528582 0.838392
vt 0.465270 0.873760
vt 0.536059 0.795003
vt 0.553985 0.772518
vt 0.534376 0.749999
vt 0.532677 0.712166
vt 0.561752 0.735494
vt 0.575757 0.863510
vt 0.556669 0.794213
vt 0.576963 0.820549
vt 0.722380 0.513254
vt 0.770262 0.686543
vt 0.680186 0.663805
vt 0.691779 0.522581
vt 0.546195 0.496142
vt 0.529406 0.551648
vt 0.480108 0.548227
vt 0.478617 0.513966
vt 0.554707 0.682268
vt 0.496973 0.640356
vt 0.501324 0.622935
vt 0.541663 0.628505
vt 0.603328 0.406321
vt 0.612607 0.464013
vt 0.552553 0.441722
vt 0.410614 0.384745
vt 0.521348 0.348198
vt 0.401878 0.856996
vt 0.502542 0.789310
vt 0.264743 0.737408
vt 0.154653 0.675610
vt 0.197405 0.658465
vt 0.278196 0.649538
vt 0.415227 0.783737
vt 0.567162 0.660589
vt 0.527893 0.599036
vt 0.398405 0.620472
vt 0.431738 0.630739
vt 0.585966 0.666063
vt 0.575990 0.658086
vt 0.572575 0.625149
vt 0.662176 0.637367
vt 0.522590 0.914799
vt 0.449324 0.922639
vt 0.394952 0.049998
vt 0.383196 0.212618
vt 0.375138 0.127313
vt 0.581154 0.682787
vt 0.591044 0.697568
vt 0.592792 0.926342
vt 0.764577 0.741494
vt 0.688075 0.740661
vt 0.577631 0.758074
vt 0.604867 0.783692
vt 0.615396 0.329908
vt 0.566725 0.368982
vt 0.507997 0.980502
vt 0.402496 0.996960
vt 0.405105 0.935370
vt 0.860853 0.589845
vt 0.853941 0.690049
vt 0.811698 0.510294
vt 0.551409 0.558253
vt 0.383290 0.349384
vt 0.487660 0.584735
vt 0.475961 0.613061
vt 0.488904 0.458733
vt 0.523662 0.448919
vt 0.568740 0.744751
vt 0.352150 0.587946
vt 0.317927 0.555097
vt 0.352503 0.603739
vt 0.296183 0.615313
vt 0.496240 0.659615
vt 0.482796 0.696857
vt 0.439102 0.873470
vt 0.169041 0.742303
vt 0.464475 0.582961
vt 0.448133 0.549183
vt 0.225924 0.598758
vt 0.422612 0.565562
vt 0.348414 0.510690
vt 0.614304 0.815334
vt 0.840240 0.749411
vt 0.538000 0.408221
vt 0.615010 0.897039
vt 0.615159 0.053994
vt 0.531437 0.691254
vt 0.129004 0.715800
vt 0.426045 0.588797
vt 0.177287 0.542650
vt 0.626069 0.752139
vt 0.611903 0.984863
vt 0.238098 0.508691
vt 0.501720 0.009516
s 0
usemtl Material
f 23/1/1 53/2/1 85/3/1 22/4/1
f 40/5/2 38/6/2 4/7/2 13/8/2
f 49/9/3 46/10/3 68/11/3 51/12/3
f 32/13/4 34/14/4 31/15/4
f 29/16/5 37/17/5 21/18/5 74/19/5
f 33/20/6 32/13/6 30/21/6 2/22/6
f 81/23/7 27/24/7 5/25/7 84/26/7
f 1/27/8 58/28/8 16/29/8 76/30/8
f 3/31/9 17/32/9 65/33/9 18/34/9
f 81/35/10 84/36/10 1/27/10 83/37/10
f 22/4/11 85/3/11 24/38/11 80/39/11
f 34/14/12 52/40/12 6/41/12 31/15/12
f 52/42/13 15/43/13 50/44/13 48/45/13
f 6/41/14 52/40/14 51/46/14 37/17/14
f 66/47/15 3/31/15 18/34/15 62/48/15
f 47/49/16 63/50/16 68/11/16 46/10/16
f 67/51/17 69/52/17 59/53/17 25/54/17
f 32/13/18 7/55/18 36/56/18 34/14/18
f 39/57/19 38/6/19 41/58/19 15/59/19
f 31/15/20 29/16/20 30/21/20 32/13/20
f 70/60/21 69/52/21 67/51/21 71/61/21
f 9/62/22 7/55/22 32/13/22 33/20/22
f 5/25/23 27/24/23 8/63/23 26/64/23
f 2/22/24 30/21/24 75/65/24 28/66/24
f 79/67/25 78/68/25 13/8/25 4/7/25
f 11/69/26 39/70/26 10/71/26 36/56/26
f 4/72/27 12/73/27 27/24/27 79/74/27
f 66/47/28 62/48/28 55/75/28 59/53/28
f 40/5/29 77/76/29 41/58/29 38/6/29
f 62/48/30 18/34/30 65/33/30 57/77/30
f 17/32/31 63/50/31 47/49/31 64/78/31
f 23/1/32 86/79/32 87/80/32 76/30/32
f 66/47/33 69/52/33 70/60/33 3/31/33
f 30/21/34 73/81/34 71/61/34 75/65/34
f 49/9/35 51/12/35 52/42/35 48/45/35
f 31/15/36 6/41/36 37/17/36 29/16/36
f 53/2/37 43/82/37 42/83/37 85/3/37
f 43/82/38 44/84/38 47/49/38 45/85/38
f 19/86/39 20/87/39 68/11/39 63/50/39
f 15/43/40 52/40/40 35/88/40 10/89/40
f 16/29/41 57/77/41 61/90/41 54/91/41
f 73/81/42 30/21/42 29/16/42 74/19/42
f 45/85/43 14/92/43 42/83/43 43/82/43
f 56/93/44 43/82/44 53/2/44 54/91/44
f 85/94/45 42/83/45 77/76/45 24/38/45
f 45/85/46 47/49/46 49/9/46 48/45/46
f 53/2/47 23/1/47 76/30/47 54/91/47
f 28/66/48 26/95/48 2/22/48
f 35/88/49 52/40/49 34/14/49
f 8/63/50 27/24/50 12/73/50 9/96/50
f 48/45/51 50/44/51 14/92/51 45/85/51
f 36/56/52 7/55/52 11/69/52
f 81/35/53 83/37/53 82/97/53 78/68/53
f 64/78/54 61/90/54 57/77/54 65/33/54
f 8/98/55 33/20/55 2/22/55 26/95/55
f 12/99/56 4/7/56 38/6/56
f 19/86/57 17/32/57 3/31/57 72/100/57
f 87/80/58 86/79/58 82/97/58 83/37/58
f 71/61/59 73/81/59 3/31/59 70/60/59
f 87/80/60 83/37/60 1/27/60 76/30/60
f 39/101/61 15/43/61 10/89/61
f 20/87/62 19/86/62 72/100/62 21/18/62
f 67/51/63 28/66/63 75/65/63 71/61/63
f 56/93/64 54/91/64 61/90/64 60/102/64
f 14/92/65 50/44/65 15/43/65 41/103/65
f 17/32/66 64/78/66 65/33/66
f 25/54/67 84/26/67 5/25/67 67/51/67
f 63/50/68 17/32/68 19/86/68
f 35/88/69 34/14/69 36/56/69 10/71/69
f 5/25/70 26/64/70 28/104/70 67/51/70
f 60/102/71 61/90/71 64/78/71 47/49/71
f 20/87/72 21/18/72 37/17/72
f 16/29/73 58/28/73 62/48/73 57/77/73
f 12/105/74 11/69/74 7/55/74 9/62/74
f 81/35/75 78/68/75 79/74/75 27/24/75
f 73/81/76 74/19/76 72/100/76 3/31/76
f 13/8/77 78/68/77 80/39/77 40/5/77
f 82/97/78 86/79/78 23/1/78
f 40/5/79 80/39/79 24/38/79 77/76/79
f 42/83/80 14/92/80 41/103/80 77/106/80
f 56/93/81 60/102/81 44/84/81 43/82/81
f 8/98/82 9/62/82 33/20/82
f 16/29/83 54/91/83 76/30/83
f 62/48/84 58/28/84 55/75/84
f 12/99/85 38/6/85 39/57/85 11/107/85
f 58/28/86 1/27/86 84/36/86 55/75/86
f 82/97/87 23/1/87 22/4/87 80/39/87
f 82/97/88 80/39/88 78/68/88
f 59/53/89 69/52/89 66/47/89
f 68/11/90 20/87/90 37/17/90 51/12/90
f 60/102/91 47/49/91 44/84/91
f 21/18/92 72/100/92 74/19/92
f 46/10/93 49/9/93 47/49/93
f 55/75/94 84/26/94 25/54/94 59/53/94
