# Blender 4.2.1 LTS
# www.blender.org
mtllib LOWPOLY_stone_4.mtl
o Rock_LowPoly_
v -0.555383 0.395643 -0.226574
v 0.618300 -0.249943 -0.277141
v 0.491999 1.086960 -0.164045
v 0.556433 0.087971 0.528084
v -0.297162 0.066199 -0.665317
v -0.510162 -0.125476 0.479020
v -0.173088 -0.243997 -0.602152
v 0.493160 -0.225932 -0.466694
v -0.106634 -0.125662 0.619887
v 0.470099 -0.116770 0.508782
v -0.659339 0.009351 0.316364
v -0.704083 0.120527 0.075204
v -0.596931 0.370542 0.209364
v -0.723542 -0.117104 -0.000920
v -0.696968 0.158729 -0.176081
v -0.586282 0.147899 -0.467952
v -0.506136 0.308126 -0.413523
v -0.484313 0.075770 -0.584193
v -0.388017 -0.124325 -0.612252
v -0.040256 0.445446 -0.672715
v -0.011065 0.767765 -0.578041
v -0.104123 0.033105 -0.710699
v 0.147231 0.121782 -0.704112
v 0.378581 0.424872 -0.592252
v 0.499250 0.141140 -0.524752
v 0.626273 -0.146578 -0.400600
v 0.519147 0.931094 -0.297191
v 0.721510 -0.134022 -0.192579
v 0.621457 0.328780 -0.336311
v 0.702221 0.496962 -0.127966
v 0.699072 -0.207909 -0.019650
v 0.724355 -0.120641 0.114085
v 0.622435 0.829463 -0.157242
v 0.657795 -0.082084 0.343219
v 0.729622 0.536660 0.062823
v 0.671423 0.207761 0.387155
v 0.376849 0.774838 -0.499969
v 0.568565 0.805200 0.195176
v 0.619944 0.434020 0.385388
v 0.295633 0.049228 0.650444
v 0.233173 0.833737 0.428612
v 0.101705 0.484059 0.601061
v -0.166175 0.104463 0.686611
v -0.211249 0.748377 0.448922
v 0.238505 1.251876 0.214679
v 0.201769 1.094679 0.326988
v -0.396129 -0.079503 0.586493
v -0.577655 -0.210718 -0.417537
v -0.431002 -0.335930 -0.292370
v 0.135626 -0.367370 -0.358745
v 0.295013 -0.338650 0.168530
v -0.340308 -0.275046 0.393252
v 0.206066 1.271932 -0.194317
v 0.123124 1.292666 -0.055577
v -0.015615 1.212625 -0.002829
v 0.293182 1.311878 -0.012816
v 0.206001 1.308500 0.080665
v -0.397653 0.684398 0.328724
v -0.633945 -0.200154 0.201622
v -0.684809 -0.226589 -0.131723
v -0.693514 -0.054982 -0.259438
v -0.621957 0.153536 0.380878
v -0.410525 0.208191 -0.564394
v 0.186344 0.861005 -0.578480
v 0.434087 -0.138319 -0.580781
v 0.197613 0.576946 -0.647709
v -0.571922 -0.101613 -0.484435
v 0.131205 -0.133408 -0.681038
v -0.163511 -0.142687 -0.667251
v 0.750963 0.171140 -0.072897
v 0.758369 0.253001 0.139849
v 0.531295 1.048417 0.096391
v 0.463860 1.050224 0.220668
v -0.119565 0.211772 0.676609
v -0.245792 0.347542 0.619818
v 0.039867 1.043059 0.368412
v -0.360002 0.105812 0.637443
v 0.453239 0.449227 0.507754
v -0.483340 0.199825 0.552344
v 0.276254 -0.300460 -0.487863
v -0.196512 -0.343484 -0.162328
v 0.432634 -0.355631 -0.309877
v -0.541007 -0.332447 -0.025173
v 0.544015 -0.332460 -0.059096
v -0.075129 -0.341027 0.280616
v 0.507985 -0.243709 0.296774
v 0.343700 -0.249401 0.426005
v -0.310179 -0.302922 -0.455626
v 0.613363 -0.169246 0.364306
v 0.287776 -0.147934 0.563411
v -0.134468 -0.209927 0.541769
v 0.196059 1.061799 -0.443111
v -0.005531 1.046287 -0.363362
v -0.085873 1.124949 -0.118063
v -0.318691 0.855316 0.136315
v 0.329633 1.287268 0.121013
v -0.025291 1.139957 0.251474
v -0.603912 0.398010 0.017212
v 0.406162 1.244804 0.006438
v 0.360354 1.215930 -0.191018
v 0.410094 1.039592 -0.352058
vn -0.8114 0.4566 -0.3648
vn 0.4566 0.2284 -0.8599
vn -0.8611 0.4771 -0.1760
vn 0.4447 0.4353 -0.7828
vn 0.6624 -0.2925 0.6897
vn 0.8824 0.4428 -0.1592
vn 0.5304 -0.8166 0.2279
vn -0.0422 -0.6717 0.7396
vn 0.0720 -0.3300 0.9412
vn -0.1230 0.3817 0.9161
vn 0.1352 0.3872 0.9120
vn 0.0148 -0.1551 -0.9878
vn -0.0997 0.1066 -0.9893
vn 0.0478 -0.8080 -0.5872
vn -0.6393 -0.1065 0.7615
vn -0.1206 -0.5286 -0.8403
vn 0.3507 -0.7745 0.5264
vn 0.7475 0.1569 -0.6455
vn 0.6304 0.1942 0.7516
vn 0.1491 -0.9427 0.2986
vn 0.7366 0.5874 0.3351
vn -0.8562 0.5067 0.1011
vn 0.9487 0.3128 -0.0460
vn -0.5112 0.8584 -0.0420
vn 0.3127 0.7060 -0.6354
vn 0.0490 -0.9976 0.0495
vn 0.8227 -0.5016 0.2675
vn -0.5432 0.4633 -0.7002
vn 0.6756 -0.1261 -0.7264
vn 0.9092 0.1995 0.3655
vn 0.9086 0.0684 -0.4121
vn -0.7408 0.6651 0.0944
vn -0.4085 0.2569 0.8759
vn -0.3992 0.8626 0.3107
vn -0.4457 -0.8182 0.3631
vn -0.2367 0.1846 0.9539
vn -0.1162 0.6581 0.7439
vn 0.7711 0.1248 -0.6244
vn 0.4527 0.0265 -0.8913
vn 0.5088 -0.8481 -0.1476
vn -0.0812 0.2623 -0.9616
vn -0.9965 0.0570 -0.0614
vn 0.9475 -0.1000 0.3039
vn 0.2072 -0.8681 -0.4511
vn -0.7658 -0.0825 0.6378
vn -0.0353 -0.8963 0.4419
vn -0.7337 0.5309 -0.4241
vn -0.3435 -0.6994 -0.6268
vn -0.9455 0.2312 0.2291
vn -0.2975 0.7352 -0.6090
vn 0.7045 -0.7017 -0.1064
vn 0.0540 -0.8556 0.5149
vn 0.4344 0.5075 0.7442
vn 0.8903 0.1175 -0.4399
vn 0.3242 0.2019 0.9242
vn -0.8024 0.3839 0.4569
vn 0.3907 0.3862 0.8356
vn -0.9636 -0.1157 0.2411
vn -0.2486 -0.1502 -0.9569
vn -0.0915 -0.9702 -0.2243
vn -0.6591 0.6127 0.4361
vn -0.4933 0.7679 -0.4085
vn -0.9748 -0.1628 -0.1524
vn -0.3081 0.5675 -0.7636
vn 0.2540 -0.6550 -0.7116
vn 0.4196 0.8558 -0.3026
vn -0.5313 0.4039 0.7446
vn 0.5485 -0.7039 -0.4513
vn 0.8009 0.5830 -0.1365
vn -0.3609 0.3314 -0.8717
vn -0.6315 0.4557 -0.6274
vn 0.7009 0.5569 -0.4456
vn -0.7432 -0.6485 0.1648
vn 0.3110 -0.1049 -0.9446
vn -0.5534 -0.4140 -0.7227
vn -0.0786 0.9882 -0.1314
vn 0.8118 -0.4725 -0.3431
vn -0.4977 -0.8405 -0.2143
vn -0.0146 -0.9992 0.0363
vn -0.4317 0.2826 -0.8566
vn 0.9959 -0.0907 0.0002
vn 0.8178 -0.1237 0.5621
vn 0.8606 0.3215 0.3949
vn -0.2685 -0.7148 0.6457
vn 0.0648 0.2176 0.9739
vn -0.8174 0.5517 -0.1657
vn 0.3945 -0.3203 0.8612
vn 0.2726 0.3412 0.8996
vn 0.0846 0.0560 0.9948
vn 0.6821 0.3451 0.6447
vn -0.4950 -0.1175 -0.8609
vn 0.9907 -0.1361 -0.0033
vn -0.9085 0.0544 -0.4143
vn -0.3485 -0.8346 -0.4266
vn 0.1924 0.0997 -0.9762
vn 0.3300 0.9403 0.0830
vn 0.2593 -0.9306 0.2583
vn -0.1882 -0.2775 0.9421
vn 0.3122 -0.6991 0.6433
vn 0.7664 0.1958 -0.6118
vn -0.9359 0.3486 0.0513
vn 0.8480 0.3058 0.4329
vn 0.0339 0.9235 0.3820
vn -0.0841 -0.9914 0.1003
vn -0.8841 -0.2725 -0.3795
vn -0.8167 -0.3502 0.4587
vn -0.7517 0.0003 -0.6596
vn 0.0045 -0.9978 -0.0660
vn -0.4322 0.5612 0.7059
vn 0.9882 0.1006 -0.1155
vt 0.594641 0.169941
vt 0.576761 0.231435
vt 0.540540 0.231297
vt 0.540373 0.164740
vt 0.564872 0.428388
vt 0.609640 0.423646
vt 0.599058 0.510842
vt 0.552631 0.480244
vt 0.586287 0.127886
vt 0.685487 0.509437
vt 0.702890 0.548611
vt 0.634029 0.568972
vt 0.474177 0.700616
vt 0.499137 0.756135
vt 0.417662 0.782763
vt 0.411132 0.718956
vt 0.623137 0.640223
vt 0.613339 0.697499
vt 0.593832 0.612357
vt 0.604767 0.576603
vt 0.312321 0.632264
vt 0.430255 0.622040
vt 0.300611 0.688723
vt 0.209573 0.750000
vt 0.179862 0.749405
vt 0.375596 0.879937
vt 0.399056 0.840561
vt 0.483256 0.820748
vt 0.476005 0.905301
vt 0.396186 0.897569
vt 0.601178 0.934644
vt 0.534710 0.926933
vt 0.540888 0.859215
vt 0.605444 0.882492
vt 0.572559 0.830116
vt 0.597649 0.841428
vt 0.511423 0.354830
vt 0.516232 0.410199
vt 0.457773 0.397956
vt 0.453146 0.340369
vt 0.522076 0.312393
vt 0.561822 0.357379
vt 0.271607 0.504546
vt 0.279693 0.552530
vt 0.252721 0.583532
vt 0.219443 0.517608
vt 0.412112 0.977288
vt 0.426006 0.949594
vt 0.497315 0.945582
vt 0.529544 0.982742
vt 0.377571 0.335099
vt 0.469476 0.290232
vt 0.333363 0.747895
vt 0.284637 0.708012
vt 0.555782 0.735396
vt 0.547811 0.780966
vt 0.524964 0.721131
vt 0.232058 0.686021
vt 0.268889 0.666684
vt 0.616448 0.750227
vt 0.645761 0.684070
vt 0.677298 0.711883
vt 0.841080 0.662358
vt 0.575759 0.078924
vt 0.855827 0.699376
vt 0.568750 0.655360
vt 0.562546 0.597352
vt 0.795744 0.613769
vt 0.775077 0.653239
vt 0.715434 0.693360
vt 0.735830 0.656315
vt 0.708892 0.631344
vt 0.655832 0.637037
vt 0.304063 0.584727
vt 0.469003 0.647319
vt 0.554357 0.277409
vt 0.526154 0.270413
vt 0.396693 0.504341
vt 0.461416 0.468612
vt 0.521150 0.501662
vt 0.463739 0.535324
vt 0.533009 0.659684
vt 0.545582 0.550252
vt 0.529303 0.604676
vt 0.473805 0.583269
vt 0.778051 0.716694
vt 0.706810 0.735101
vt 0.199120 0.708160
vt 0.159095 0.729242
vt 0.128566 0.681508
vt 0.160981 0.636107
vt 0.510578 0.902350
vt 0.622809 0.898892
vt 0.621901 0.834745
vt 0.399897 0.569904
vt 0.613149 0.357002
vt 0.481762 0.127180
vt 0.533757 0.112219
vt 0.491713 0.178401
vt 0.530970 0.003715
vt 0.539711 0.044655
vt 0.493964 0.058216
vt 0.428795 0.012247
vt 0.222723 0.735900
vt 0.777111 0.564904
vt 0.858617 0.516123
vt 0.866289 0.550403
vt 0.201951 0.550714
vt 0.436137 0.223842
vt 0.272429 0.738941
vt 0.616992 0.045136
vt 0.417097 0.072212
vt 0.221201 0.611863
vt 0.806165 0.748421
vt 0.445736 0.150914
vt 0.782297 0.505665
vt 0.303556 0.501991
vt 0.684245 0.677635
vt 0.617302 0.961061
vt 0.375000 0.116357
vt 0.483391 0.236994
vt 0.186833 0.582895
vt 0.590357 0.713648
vt 0.873416 0.610699
vt 0.140957 0.525980
s 0
f 1/1/1 17/2/1 16/3/1 15/4/1
f 66/5/2 64/6/2 37/7/2 24/8/2
f 98/9/3 1/1/3 15/4/3
f 64/10/4 92/11/4 101/12/4 37/7/4
f 34/13/5 4/14/5 10/15/5 89/16/5
f 3/17/6 72/18/6 33/19/6 27/20/6
f 84/21/7 31/22/7 89/16/7 86/23/7
f 9/24/8 47/25/8 91/26/8 90/27/8
f 40/28/9 43/29/9 9/30/9 90/27/9
f 44/31/10 75/32/10 42/33/10 76/34/10
f 76/34/11 42/33/11 41/35/11 46/36/11
f 22/37/12 23/38/12 68/39/12 69/40/12
f 5/41/13 20/42/13 23/38/13 22/37/13
f 68/43/14 80/44/14 50/45/14 7/46/14
f 6/47/15 47/48/15 77/49/15 79/50/15
f 69/40/16 68/39/16 7/51/16 19/52/16
f 86/23/17 89/16/17 10/53/17 87/54/17
f 101/12/18 27/20/18 33/19/18 37/7/18
f 39/55/19 78/56/19 4/14/19 36/57/19
f 86/23/20 87/54/20 85/58/20 51/59/20
f 73/60/21 72/18/21 99/61/21 96/62/21
f 95/63/22 98/9/22 13/64/22 58/65/22
f 33/19/23 72/18/23 35/66/23 30/67/23
f 94/68/24 55/69/24 57/70/24 54/71/24
f 92/11/25 53/72/25 100/73/25 101/12/25
f 51/59/26 50/45/26 82/74/26 84/21/26
f 31/22/27 32/75/27 34/13/27 89/16/27
f 16/3/28 17/2/28 63/76/28 18/77/28
f 8/78/29 65/79/29 25/80/29 26/81/29
f 35/66/30 39/55/30 36/57/30 71/82/30
f 26/81/31 29/83/31 70/84/31 28/85/31
f 94/68/32 95/63/32 97/86/32 55/69/32
f 75/32/33 79/50/33 77/49/33
f 97/86/34 45/87/34 57/70/34 55/69/34
f 52/88/35 6/89/35 59/90/35 83/91/35
f 74/92/36 75/32/36 77/49/36 43/29/36
f 97/93/37 76/34/37 46/36/37 45/94/37
f 24/8/38 29/83/38 26/81/38 25/80/38
f 25/80/39 65/79/39 23/38/39 24/8/39
f 2/95/40 84/21/40 82/74/40
f 64/6/41 66/5/41 20/42/41 21/96/41
f 14/97/42 12/98/42 15/4/42 61/99/42
f 71/82/43 36/57/43 34/13/43 32/75/43
f 82/74/44 50/45/44 80/44/44 8/78/44
f 79/100/45 62/101/45 11/102/45 6/103/45
f 85/58/46 91/104/46 52/88/46
f 93/105/47 17/106/47 1/107/47 94/68/47
f 88/108/48 48/109/48 19/52/48 7/46/48
f 62/101/49 13/64/49 12/98/49 11/102/49
f 92/11/50 93/105/50 53/72/50
f 31/22/51 84/21/51 2/95/51 28/85/51
f 87/54/52 90/110/52 91/104/52 85/58/52
f 96/62/53 45/94/53 46/36/53 73/60/53
f 29/83/54 33/19/54 30/67/54 70/84/54
f 4/14/55 78/56/55 42/33/55 40/28/55
f 58/111/56 13/64/56 62/101/56 79/100/56
f 46/36/57 41/35/57 78/56/57 73/60/57
f 11/102/58 12/98/58 14/97/58 59/112/58
f 22/37/59 69/40/59 19/52/59 5/41/59
f 7/46/60 50/45/60 81/113/60 88/108/60
f 58/65/61 44/114/61 97/86/61 95/63/61
f 93/105/62 94/68/62 54/71/62 53/72/62
f 60/115/63 14/97/63 61/99/63
f 21/116/64 93/105/64 92/11/64 64/10/64
f 8/78/65 80/44/65 68/43/65 65/117/65
f 56/118/66 99/61/66 100/73/66 53/72/66
f 79/50/67 75/32/67 44/31/67 58/119/67
f 82/74/68 8/78/68 26/81/68 2/95/68
f 3/17/69 100/73/69 99/61/69 72/18/69
f 18/77/70 63/76/70 5/41/70
f 93/105/71 21/96/71 63/76/71 17/106/71
f 3/17/72 27/20/72 101/12/72 100/73/72
f 59/112/73 14/97/73 60/115/73 83/120/73
f 68/39/74 23/38/74 65/79/74
f 67/121/75 19/52/75 48/109/75
f 53/72/76 54/71/76 57/70/76 56/118/76
f 26/81/77 28/85/77 2/95/77
f 49/122/78 83/91/78 60/115/78 48/109/78
f 50/45/79 51/59/79 85/58/79 81/113/79
f 63/76/80 21/96/80 20/42/80 5/41/80
f 32/75/81 70/84/81 71/82/81
f 34/13/82 36/57/82 4/14/82
f 39/55/83 35/66/83 38/123/83
f 52/88/84 91/104/84 47/25/84 6/89/84
f 75/32/85 74/92/85 40/28/85 42/33/85
f 94/68/86 1/107/86 98/124/86 95/63/86
f 4/14/87 40/28/87 90/27/87 10/15/87
f 78/56/88 41/35/88 42/33/88
f 40/28/89 74/92/89 43/29/89
f 78/56/90 39/55/90 38/123/90 73/60/90
f 18/77/91 5/41/91 19/52/91 67/121/91
f 31/22/92 28/85/92 70/84/92 32/75/92
f 16/3/93 67/121/93 61/99/93 15/4/93
f 49/122/94 48/125/94 88/108/94
f 24/8/95 23/38/95 20/42/95 66/5/95
f 56/118/96 57/70/96 96/62/96 99/61/96
f 86/23/97 51/59/97 84/21/97
f 47/48/98 9/30/98 43/29/98 77/49/98
f 90/110/99 87/54/99 10/53/99
f 37/7/100 33/19/100 29/83/100 24/8/100
f 12/98/101 13/64/101 98/9/101 15/4/101
f 35/66/102 72/18/102 73/60/102 38/123/102
f 57/70/103 45/87/103 96/62/103
f 81/113/104 85/58/104 52/88/104 83/91/104
f 61/99/105 67/121/105 48/109/105 60/115/105
f 11/102/106 59/112/106 6/103/106
f 67/121/107 16/3/107 18/77/107
f 49/122/108 88/108/108 81/113/108 83/91/108
f 76/34/109 97/93/109 44/31/109
f 35/66/110 71/82/110 70/84/110 30/67/110
