# Blender 4.2.1 LTS
# www.blender.org
mtllib LOWPOLY_stone_2.mtl
o Low_Poly
v 0.357403 2.000576 -0.208595
v -0.751770 -1.130051 1.377296
v 0.257632 0.626063 1.655507
v -0.704542 -1.108424 1.686910
v 0.883597 0.730383 -1.222701
v 0.944657 1.102265 -0.694480
v 0.943124 -0.801876 0.732478
v 1.327374 0.220079 -0.218234
v -1.213642 -0.838031 0.501690
v -1.801734 0.327858 -0.044555
v 0.014140 1.356847 0.179775
v 1.189593 -0.452802 0.745445
v 0.755086 -0.223306 -1.766126
v -0.180113 -0.575836 -1.970366
v 0.108118 0.920641 0.830583
v 0.414169 -0.902642 1.890263
v -1.293201 -0.424526 -0.787994
v -1.358478 -0.134712 -0.798225
v -1.020993 0.135555 -1.339604
v 0.832397 0.692727 0.935460
v 0.656671 0.561927 1.577006
v -0.201426 0.200148 1.893866
v 0.568186 0.203434 1.915933
v 0.656287 -0.675968 1.793401
v 0.430071 -1.122737 0.142512
v -1.521879 -0.824882 1.423994
v -1.346169 0.265284 1.216780
v -1.288846 0.892895 -0.844680
v -1.446717 0.853238 -0.070343
v -0.128987 2.004542 -0.258694
v 0.241865 -0.923730 -1.590011
v -0.571431 -0.853020 -1.363547
v -0.018530 0.768212 0.881171
v -0.213306 0.494070 1.483800
v -0.196240 1.011633 0.560280
v 0.116519 0.946434 0.668645
v -0.661840 0.830888 0.368872
v -1.361904 0.586359 0.505569
v -0.892601 0.477741 0.877784
v 0.005516 -0.967275 1.989319
v -0.283144 -0.704811 2.070617
v -0.788870 -0.834312 1.854422
v -1.027271 -0.345815 -1.030680
v -1.087543 -0.566471 -1.019820
v -1.258862 -0.620826 -0.517708
v -1.798767 -0.187227 0.025288
v -1.214010 -0.104381 -1.046809
v 0.055053 -1.040174 1.253374
v 0.220943 -1.052255 1.694149
v -0.655314 -1.033460 1.242761
v 1.163943 0.433716 0.438828
v 0.524899 0.938046 0.827429
v 1.275406 -0.172337 0.736804
v 0.293573 0.149797 2.007323
v 0.257851 -0.575756 2.096758
v -1.483177 -0.918715 1.269025
v 0.011133 -1.019489 -1.109449
v 0.732893 -0.707372 -1.471683
v 0.756055 -1.000508 -0.399181
v 0.336818 0.543331 -1.814130
v -0.341894 -0.052680 -2.002243
v -0.628901 -0.514132 -1.743486
v 0.172131 -0.259386 -2.110609
v -1.626733 -0.010060 1.146670
v -1.576690 -0.590531 0.619984
v -1.808916 -0.366357 0.883456
v -0.954079 -0.321382 1.787373
v -1.043115 0.119552 1.409623
v -1.871071 -0.024312 0.557152
v -1.736375 0.347508 0.576848
v -1.132177 1.081310 0.043920
v -0.046283 1.551726 0.086569
v 0.425639 1.244139 0.420228
v -0.862615 1.608376 -0.338187
v 0.711905 1.748594 -0.482663
v 0.640350 1.363064 -1.048923
v 0.615292 1.869080 -0.309715
v -0.554948 0.973754 -1.523773
v 0.241444 1.631135 -1.108157
v -0.404533 1.331363 -1.406641
v -0.893754 1.122894 -1.239781
v -1.152132 1.410947 -0.791142
v -0.439128 1.947919 -0.647997
v 0.065220 2.048992 -0.523844
v -0.668123 1.737003 -0.950396
v -0.948922 1.684040 -0.603125
v -0.243054 -0.827781 -1.673647
v 0.266721 -0.594877 -2.002735
v 1.328860 -0.070496 -0.567134
v 1.182144 -0.672529 -0.308328
v 0.937411 0.937731 -0.015567
vn -0.5176 -0.8339 -0.1917
vn 0.5351 -0.8119 -0.2335
vn -0.6711 0.1408 -0.7278
vn 0.7019 -0.7085 0.0731
vn 0.8177 0.4223 -0.3913
vn -0.8031 -0.1823 -0.5673
vn -0.8721 -0.1211 -0.4740
vn 0.5822 0.2696 -0.7670
vn -0.5062 -0.0505 0.8609
vn -0.2469 -0.9507 -0.1878
vn -0.5568 0.7103 0.4308
vn -0.1118 0.9902 0.0841
vn -0.6439 -0.6168 -0.4527
vn -0.1838 0.8361 0.5169
vn -0.2324 0.3896 -0.8912
vn -0.0574 0.8787 0.4739
vn 0.0791 -0.9778 -0.1942
vn -0.7780 0.0682 -0.6246
vn -0.7457 0.6135 0.2600
vn 0.2751 0.7995 0.5339
vn -0.8913 0.4243 -0.1600
vn 0.5258 0.7937 0.3058
vn 0.8663 0.2132 0.4517
vn -0.5125 0.5128 -0.6888
vn -0.4921 0.6112 0.6199
vn -0.1904 -0.2128 -0.9584
vn -0.6778 -0.3535 -0.6447
vn 0.4478 -0.8667 0.2200
vn -0.0176 0.7804 -0.6250
vn 0.6892 0.6797 0.2512
vn -0.2277 -0.5354 0.8133
vn 0.1418 -0.3459 0.9275
vn 0.5586 -0.5626 -0.6095
vn 0.8857 0.4541 0.0965
vn 0.5104 -0.1295 -0.8501
vn 0.0580 -0.9803 0.1889
vn 0.1477 -0.9806 -0.1287
vn 0.2015 0.6169 0.7608
vn 0.8653 0.3640 0.3447
vn -0.9890 0.1453 -0.0289
vn -0.1534 0.7790 0.6079
vn 0.9688 -0.2458 0.0312
vn -0.3651 0.5214 0.7713
vn 0.7525 -0.5986 0.2745
vn 0.3971 0.8715 -0.2877
vn -0.8970 0.2483 0.3658
vn 0.3040 -0.9490 0.0841
vn -0.2242 0.6771 0.7010
vn 0.4538 0.7495 -0.4820
vn -0.1127 0.6147 0.7806
vn -0.4538 0.8393 0.2994
vn 0.9876 0.1186 0.1025
vn -0.8771 -0.4680 -0.1081
vn 0.8790 -0.3178 -0.3554
vn 0.0905 0.9220 0.3766
vn -0.7231 0.1374 0.6770
vn 0.8713 -0.0462 0.4885
vn -0.4409 -0.6743 -0.5924
vn -0.1442 0.1695 0.9749
vn -0.7381 0.1614 -0.6551
vn -0.2004 -0.9788 -0.0421
vn -0.6690 -0.7241 -0.1676
vn 0.5480 -0.2434 0.8002
vn -0.0851 0.3868 -0.9182
vn -0.8219 -0.5594 -0.1070
vn -0.5316 0.7884 -0.3096
vn 0.5058 -0.0013 0.8626
vn -0.8522 0.0341 -0.5221
vn -0.0105 -0.9975 0.0706
vn 0.4620 -0.8834 0.0787
vn -0.1540 -0.9546 -0.2550
vn 0.8693 0.4050 0.2835
vn 0.3668 0.5586 -0.7439
vn -0.2899 0.6018 0.7441
vn -0.4276 -0.6725 0.6041
vn -0.6018 -0.7443 -0.2896
vn -0.1771 -0.9763 -0.1240
vn -0.4637 -0.1961 -0.8640
vn -0.4592 0.8302 0.3162
vn -0.3145 0.1428 0.9384
vn -0.2927 0.8764 0.3825
vn -0.6287 0.6661 0.4013
vn -0.6677 0.6295 0.3973
vn -0.3958 0.7813 0.4827
vn 0.3064 0.2533 -0.9176
vn -0.2316 0.8128 0.5344
vn -0.7974 -0.3025 -0.5222
vn -0.0293 0.8301 -0.5568
vn -0.2616 0.6705 0.6942
vn -0.0598 -0.7687 -0.6368
vn -0.4028 0.5472 0.7337
vn -0.6896 0.6872 0.2284
vn 0.5349 0.5681 0.6254
vn -0.7544 0.2613 -0.6022
vn 0.9064 0.1744 0.3848
vn -0.1007 0.6970 0.7100
vn -0.7655 -0.5630 -0.3116
vn 0.8875 0.1320 -0.4415
vn -0.0168 0.0537 0.9984
vn -0.5474 0.3661 0.7526
vn 0.4879 0.4951 0.7189
vn 0.9235 0.2733 -0.2692
vt 0.159195 0.535406
vt 0.129107 0.622149
vt 0.425994 0.166647
vt 0.432507 0.203121
vt 0.417444 0.508812
vt 0.445019 0.604425
vt 0.351846 0.605986
vt 0.299105 0.525462
vt 0.443374 0.294761
vt 0.522874 0.241715
vt 0.662369 0.373260
vt 0.495819 0.345665
vt 0.428041 0.686219
vt 0.370817 0.683266
vt 0.593447 0.561042
vt 0.574337 0.516597
vt 0.635681 0.529312
vt 0.629547 0.574164
vt 0.500057 0.209260
vt 0.579070 0.141922
vt 0.520863 0.183213
vt 0.460530 0.183828
vt 0.508295 0.134990
vt 0.580553 0.435391
vt 0.486388 0.487406
vt 0.474979 0.409412
vt 0.430768 0.963460
vt 0.485398 0.991267
vt 0.413372 0.999902
vt 0.397045 0.042060
vt 0.376090 0.045105
vt 0.379177 0.027583
vt 0.392244 0.008177
vt 0.525021 0.055531
vt 0.869525 0.675069
vt 0.843028 0.647473
vt 0.594965 0.103795
vt 0.735020 0.606328
vt 0.679088 0.601627
vt 0.706029 0.576544
vt 0.769788 0.579541
vt 0.393987 0.243854
vt 0.672505 0.643582
vt 0.727962 0.664728
vt 0.720237 0.673660
vt 0.650651 0.675329
vt 0.718682 0.469811
vt 0.714700 0.361856
vt 0.573677 0.049298
vt 0.553566 0.027510
vt 0.841242 0.674939
vt 0.230483 0.749556
vt 0.161435 0.714528
vt 0.183075 0.697887
vt 0.250577 0.716499
vt 0.620219 0.221885
vt 0.604930 0.191633
vt 0.865946 0.625023
vt 0.823987 0.630716
vt 0.624685 0.148874
vt 0.622024 0.182459
vt 0.621722 0.133455
vt 0.594142 0.682629
vt 0.592082 0.742786
vt 0.469931 0.682469
vt 0.535873 0.793429
vt 0.812004 0.557241
vt 0.731848 0.629164
vt 0.794638 0.643028
vt 0.753224 0.679942
vt 0.751448 0.655635
vt 0.431720 0.427820
vt 0.431345 0.363682
vt 0.479024 0.200209
vt 0.417493 0.819497
vt 0.424118 0.883861
vt 0.285664 0.746430
vt 0.673301 0.523791
vt 0.566192 0.642741
vt 0.595913 0.611270
vt 0.396834 0.961783
vt 0.458135 0.922615
vt 0.468998 0.854153
vt 0.378790 0.446197
vt 0.550649 0.593758
vt 0.381918 0.845787
vt 0.392968 0.960339
vt 0.375100 0.898998
vt 0.301423 0.637658
vt 0.265456 0.552630
vt 0.621775 0.843375
vt 0.547269 0.851681
vt 0.532359 0.102867
vt 0.519250 0.567200
vt 0.848934 0.621546
vt 0.441653 0.782618
vt 0.652972 0.592112
vt 0.470367 0.078410
vt 0.738257 0.636466
vt 0.853308 0.596237
vt 0.433247 0.095088
vt 0.417114 0.030719
vt 0.482732 0.004052
vt 0.397444 0.349365
vt 0.561709 0.941535
vt 0.391727 0.111011
vt 0.624933 0.185337
vt 0.230571 0.524803
vt 0.131990 0.655953
vt 0.815583 0.727051
vt 0.697305 0.762049
vt 0.873051 0.623097
vt 0.573603 0.001537
vt 0.623090 0.019231
vt 0.622643 0.057777
vt 0.872519 0.641778
s 0
usemtl Material
f 32/1/1 9/2/1 45/3/1 44/4/1
f 58/5/2 90/6/2 59/7/2 31/8/2
f 62/9/3 19/10/3 78/11/3 61/12/3
f 12/13/4 7/14/4 59/7/4 90/6/4
f 6/15/5 5/16/5 76/17/5 75/18/5
f 47/19/6 19/10/6 62/9/6 44/4/6
f 10/20/7 18/21/7 17/22/7 46/23/7
f 60/24/8 5/16/8 13/25/8 63/26/8
f 42/27/9 67/28/9 26/29/9
f 56/30/10 50/31/10 2/32/10 4/33/10
f 64/34/11 27/35/11 38/36/11 70/37/11
f 30/38/12 1/39/12 84/40/12 83/41/12
f 32/42/13 44/4/13 62/9/13
f 73/43/14 36/44/14 15/45/14 52/46/14
f 80/47/15 60/24/15 78/11/15 81/48/15
f 27/49/16 68/50/16 39/51/16 38/36/16
f 49/52/17 2/53/17 50/54/17 48/55/17
f 81/56/18 47/19/18 18/21/18 28/57/18
f 29/58/19 71/59/19 86/60/19 82/61/19
f 75/18/20 73/43/20 52/46/20
f 10/20/21 29/62/21 82/61/21 28/57/21
f 20/63/22 52/46/22 21/64/22
f 53/65/23 21/64/23 23/66/23
f 81/56/24 82/61/24 85/67/24 80/47/24
f 72/68/25 37/69/25 33/70/25 35/71/25
f 63/26/26 88/72/26 14/73/26 61/12/26
f 47/19/27 43/74/27 17/22/27 18/21/27
f 16/75/28 40/76/28 49/77/28 7/14/28
f 79/78/29 80/47/29 85/67/29 84/40/29
f 20/63/30 51/79/30 91/80/30 52/46/30
f 42/27/31 4/81/31 40/76/31 41/82/31
f 55/83/32 41/82/32 40/76/32 16/75/32
f 13/25/33 58/5/33 31/84/33 88/72/33
f 51/79/34 8/85/34 6/15/34 91/80/34
f 88/72/35 63/26/35 13/25/35
f 49/86/36 40/76/36 4/87/36 2/88/36
f 31/8/37 59/7/37 25/89/37 57/90/37
f 23/66/38 21/64/38 3/91/38 54/92/38
f 53/65/39 51/79/39 20/63/39 21/64/39
f 46/23/40 69/93/40 70/37/40 10/20/40
f 71/59/41 38/36/41 39/51/41 37/69/41
f 90/6/42 89/94/42 53/65/42 12/13/42
f 72/68/43 30/38/43 74/95/43
f 24/96/44 16/75/44 7/14/44 12/13/44
f 84/40/45 1/39/45 77/97/45 75/18/45
f 66/98/46 64/34/46 70/37/46 69/93/46
f 49/77/47 48/55/47 25/89/47 7/14/47
f 35/71/48 73/43/48 72/68/48 11/99/48
f 79/78/49 84/40/49 75/18/49 76/17/49
f 73/43/50 1/39/50 30/38/50 72/68/50
f 86/100/51 74/95/51 30/38/51 83/41/51
f 53/65/52 89/94/52 8/85/52 51/79/52
f 66/98/53 69/93/53 46/23/53 65/101/53
f 13/25/54 89/94/54 90/6/54 58/5/54
f 21/64/55 52/46/55 15/45/55 3/91/55
f 66/98/56 26/102/56 67/103/56 64/34/56
f 12/13/57 53/65/57 23/66/57 24/96/57
f 62/9/58 14/73/58 87/104/58 32/42/58
f 41/82/59 55/83/59 54/92/59 22/105/59
f 78/11/60 19/10/60 47/19/60 81/48/60
f 32/1/61 57/90/61 25/89/61 9/2/61
f 65/101/62 46/23/62 45/3/62 9/106/62
f 16/75/63 24/96/63 55/83/63
f 61/12/64 78/11/64 60/24/64 63/26/64
f 66/98/65 65/101/65 56/30/65 26/102/65
f 86/100/66 83/41/66 85/107/66 82/61/66
f 23/66/67 54/92/67 55/83/67 24/96/67
f 10/20/68 28/57/68 18/21/68
f 50/54/69 25/89/69 48/55/69
f 25/89/70 59/7/70 7/14/70
f 31/8/71 57/90/71 32/1/71 87/108/71
f 6/15/72 75/18/72 52/46/72 91/80/72
f 5/16/73 60/24/73 80/47/73 76/17/73
f 71/59/74 37/69/74 72/68/74 74/95/74
f 4/81/75 42/27/75 26/102/75 56/30/75
f 9/106/76 56/30/76 65/101/76
f 25/89/77 50/54/77 56/109/77 9/2/77
f 62/9/78 61/12/78 14/73/78
f 15/45/79 33/70/79 34/110/79 3/111/79
f 41/82/80 22/105/80 67/28/80 42/27/80
f 37/69/81 39/51/81 34/110/81 33/70/81
f 38/36/82 71/59/82 29/58/82
f 86/112/83 71/59/83 74/95/83
f 22/113/84 34/114/84 39/115/84 68/50/84
f 80/47/85 79/78/85 76/17/85
f 33/70/86 15/45/86 36/44/86 35/71/86
f 17/22/87 43/74/87 44/4/87 45/3/87
f 84/40/88 85/67/88 83/41/88
f 54/92/89 3/111/89 34/110/89 22/105/89
f 88/72/90 31/84/90 87/104/90 14/73/90
f 27/49/91 67/28/91 22/105/91 68/50/91
f 29/62/92 10/20/92 70/116/92 38/36/92
f 77/97/93 1/39/93 73/43/93
f 81/56/94 28/57/94 82/61/94
f 73/43/95 75/18/95 77/97/95
f 73/43/96 35/71/96 36/44/96
f 17/22/97 45/3/97 46/23/97
f 5/16/98 89/94/98 13/25/98
f 47/19/99 44/4/99 43/74/99
f 27/49/100 64/34/100 67/103/100
f 11/99/101 72/68/101 35/71/101
f 89/94/102 5/16/102 6/15/102 8/85/102
